<mxfile host="app.diagrams.net" modified="2024-01-09T15:34:40.618Z" agent="Mozilla/5.0 (Windows NT 10.0; Win64; x64) AppleWebKit/537.36 (KHTML, like Gecko) Chrome/120.0.0.0 Safari/537.36" etag="Nxm7KtiHpPF6voMMT-OO" version="22.1.17" type="device">
  <diagram name="Page-1" id="PZnMkAMZ4brOtWouplXc">
    <mxGraphModel dx="1724" dy="1568" grid="1" gridSize="10" guides="1" tooltips="1" connect="1" arrows="1" fold="1" page="1" pageScale="1" pageWidth="850" pageHeight="1100" math="0" shadow="0">
      <root>
        <mxCell id="0" />
        <mxCell id="1" parent="0" />
        <mxCell id="xFgmAD1xb9HeiEeGGboP-11" style="edgeStyle=orthogonalEdgeStyle;rounded=0;orthogonalLoop=1;jettySize=auto;html=1;entryX=0.5;entryY=0;entryDx=0;entryDy=0;" edge="1" parent="1" source="xFgmAD1xb9HeiEeGGboP-1" target="xFgmAD1xb9HeiEeGGboP-6">
          <mxGeometry relative="1" as="geometry" />
        </mxCell>
        <mxCell id="xFgmAD1xb9HeiEeGGboP-1" value="&lt;font size=&quot;3&quot;&gt;&lt;b&gt;MARKETER&lt;/b&gt;&lt;/font&gt;" style="rounded=0;whiteSpace=wrap;html=1;" vertex="1" parent="1">
          <mxGeometry x="380" y="50" width="120" height="60" as="geometry" />
        </mxCell>
        <mxCell id="xFgmAD1xb9HeiEeGGboP-23" style="edgeStyle=orthogonalEdgeStyle;rounded=0;orthogonalLoop=1;jettySize=auto;html=1;exitX=1;exitY=0.5;exitDx=0;exitDy=0;entryX=0;entryY=0.5;entryDx=0;entryDy=0;" edge="1" parent="1" source="xFgmAD1xb9HeiEeGGboP-6" target="xFgmAD1xb9HeiEeGGboP-19">
          <mxGeometry relative="1" as="geometry" />
        </mxCell>
        <mxCell id="xFgmAD1xb9HeiEeGGboP-68" style="edgeStyle=orthogonalEdgeStyle;rounded=0;orthogonalLoop=1;jettySize=auto;html=1;exitX=0.5;exitY=1;exitDx=0;exitDy=0;entryX=0.5;entryY=0;entryDx=0;entryDy=0;" edge="1" parent="1" source="xFgmAD1xb9HeiEeGGboP-6" target="xFgmAD1xb9HeiEeGGboP-25">
          <mxGeometry relative="1" as="geometry" />
        </mxCell>
        <mxCell id="xFgmAD1xb9HeiEeGGboP-70" style="edgeStyle=orthogonalEdgeStyle;rounded=0;orthogonalLoop=1;jettySize=auto;html=1;exitX=0.5;exitY=1;exitDx=0;exitDy=0;entryX=0.5;entryY=0;entryDx=0;entryDy=0;" edge="1" parent="1" source="xFgmAD1xb9HeiEeGGboP-6" target="xFgmAD1xb9HeiEeGGboP-63">
          <mxGeometry relative="1" as="geometry">
            <mxPoint x="390" y="450" as="targetPoint" />
            <Array as="points">
              <mxPoint x="240" y="270" />
              <mxPoint x="210" y="270" />
              <mxPoint x="210" y="530" />
              <mxPoint x="390" y="530" />
            </Array>
          </mxGeometry>
        </mxCell>
        <mxCell id="xFgmAD1xb9HeiEeGGboP-87" style="edgeStyle=orthogonalEdgeStyle;rounded=0;orthogonalLoop=1;jettySize=auto;html=1;exitX=0;exitY=0.5;exitDx=0;exitDy=0;entryX=0.5;entryY=0;entryDx=0;entryDy=0;" edge="1" parent="1" source="xFgmAD1xb9HeiEeGGboP-6" target="xFgmAD1xb9HeiEeGGboP-15">
          <mxGeometry relative="1" as="geometry" />
        </mxCell>
        <mxCell id="xFgmAD1xb9HeiEeGGboP-6" value="&lt;h2&gt;RESTful API(server)&lt;/h2&gt;" style="rounded=0;whiteSpace=wrap;html=1;fillColor=#fff2cc;strokeColor=#d6b656;" vertex="1" parent="1">
          <mxGeometry x="180" y="180" width="120" height="60" as="geometry" />
        </mxCell>
        <mxCell id="xFgmAD1xb9HeiEeGGboP-22" style="edgeStyle=orthogonalEdgeStyle;rounded=0;orthogonalLoop=1;jettySize=auto;html=1;exitX=0;exitY=0.5;exitDx=0;exitDy=0;shape=link;" edge="1" parent="1" source="xFgmAD1xb9HeiEeGGboP-8" target="xFgmAD1xb9HeiEeGGboP-19">
          <mxGeometry relative="1" as="geometry">
            <mxPoint x="510" y="210" as="targetPoint" />
          </mxGeometry>
        </mxCell>
        <mxCell id="xFgmAD1xb9HeiEeGGboP-52" value="Public IP:Port" style="edgeLabel;html=1;align=center;verticalAlign=middle;resizable=0;points=[];" vertex="1" connectable="0" parent="xFgmAD1xb9HeiEeGGboP-22">
          <mxGeometry x="-0.1059" y="-1" relative="1" as="geometry">
            <mxPoint x="-2" y="-9" as="offset" />
          </mxGeometry>
        </mxCell>
        <mxCell id="xFgmAD1xb9HeiEeGGboP-94" style="edgeStyle=orthogonalEdgeStyle;rounded=0;orthogonalLoop=1;jettySize=auto;html=1;exitX=1;exitY=0.5;exitDx=0;exitDy=0;entryX=0.5;entryY=0;entryDx=0;entryDy=0;" edge="1" parent="1" source="xFgmAD1xb9HeiEeGGboP-8" target="xFgmAD1xb9HeiEeGGboP-17">
          <mxGeometry relative="1" as="geometry" />
        </mxCell>
        <mxCell id="xFgmAD1xb9HeiEeGGboP-8" value="&lt;p style=&quot;line-height: 120%;&quot;&gt;&lt;/p&gt;&lt;h2&gt;MAPP&lt;/h2&gt;&lt;pre style=&quot;line-height: 90%;&quot;&gt;Marketer app&lt;/pre&gt;&lt;p&gt;&lt;/p&gt;" style="rounded=0;whiteSpace=wrap;html=1;fillColor=#fff2cc;strokeColor=#d6b656;" vertex="1" parent="1">
          <mxGeometry x="570" y="180" width="120" height="60" as="geometry" />
        </mxCell>
        <mxCell id="xFgmAD1xb9HeiEeGGboP-10" style="edgeStyle=orthogonalEdgeStyle;rounded=0;orthogonalLoop=1;jettySize=auto;html=1;exitX=1;exitY=0.5;exitDx=0;exitDy=0;entryX=0.558;entryY=-0.033;entryDx=0;entryDy=0;entryPerimeter=0;" edge="1" parent="1" source="xFgmAD1xb9HeiEeGGboP-1" target="xFgmAD1xb9HeiEeGGboP-8">
          <mxGeometry relative="1" as="geometry" />
        </mxCell>
        <mxCell id="xFgmAD1xb9HeiEeGGboP-49" style="edgeStyle=orthogonalEdgeStyle;rounded=0;orthogonalLoop=1;jettySize=auto;html=1;exitX=0.5;exitY=1;exitDx=0;exitDy=0;" edge="1" parent="1" source="xFgmAD1xb9HeiEeGGboP-15">
          <mxGeometry relative="1" as="geometry">
            <mxPoint x="110" y="460" as="targetPoint" />
          </mxGeometry>
        </mxCell>
        <mxCell id="xFgmAD1xb9HeiEeGGboP-15" value="&lt;h3&gt;SQLite Database&lt;/h3&gt;" style="rounded=1;whiteSpace=wrap;html=1;" vertex="1" parent="1">
          <mxGeometry x="50" y="330" width="120" height="60" as="geometry" />
        </mxCell>
        <mxCell id="xFgmAD1xb9HeiEeGGboP-62" style="edgeStyle=orthogonalEdgeStyle;rounded=0;orthogonalLoop=1;jettySize=auto;html=1;exitX=0.5;exitY=1;exitDx=0;exitDy=0;entryX=0.5;entryY=0;entryDx=0;entryDy=0;" edge="1" parent="1" source="xFgmAD1xb9HeiEeGGboP-17" target="xFgmAD1xb9HeiEeGGboP-56">
          <mxGeometry relative="1" as="geometry" />
        </mxCell>
        <mxCell id="xFgmAD1xb9HeiEeGGboP-17" value="&lt;h3&gt;SQLite Database&lt;/h3&gt;" style="rounded=1;whiteSpace=wrap;html=1;" vertex="1" parent="1">
          <mxGeometry x="680" y="330" width="120" height="60" as="geometry" />
        </mxCell>
        <mxCell id="xFgmAD1xb9HeiEeGGboP-19" value="&lt;h3&gt;Node.js Server&lt;/h3&gt;" style="rounded=1;whiteSpace=wrap;html=1;fillColor=#ffe6cc;strokeColor=#d79b00;" vertex="1" parent="1">
          <mxGeometry x="395" y="190" width="90" height="40" as="geometry" />
        </mxCell>
        <mxCell id="xFgmAD1xb9HeiEeGGboP-93" style="edgeStyle=orthogonalEdgeStyle;rounded=0;orthogonalLoop=1;jettySize=auto;html=1;exitX=0.5;exitY=1;exitDx=0;exitDy=0;entryX=0.5;entryY=0;entryDx=0;entryDy=0;" edge="1" parent="1" source="xFgmAD1xb9HeiEeGGboP-25" target="xFgmAD1xb9HeiEeGGboP-86">
          <mxGeometry relative="1" as="geometry">
            <Array as="points">
              <mxPoint x="300" y="400" />
              <mxPoint x="380" y="400" />
            </Array>
          </mxGeometry>
        </mxCell>
        <mxCell id="xFgmAD1xb9HeiEeGGboP-98" style="edgeStyle=orthogonalEdgeStyle;rounded=0;orthogonalLoop=1;jettySize=auto;html=1;exitX=1;exitY=0.5;exitDx=0;exitDy=0;entryX=0.5;entryY=1;entryDx=0;entryDy=0;shape=flexArrow;startSize=6;strokeWidth=1;endSize=6;sourcePerimeterSpacing=0;fillColor=none;" edge="1" parent="1" source="xFgmAD1xb9HeiEeGGboP-25" target="xFgmAD1xb9HeiEeGGboP-19">
          <mxGeometry relative="1" as="geometry" />
        </mxCell>
        <mxCell id="xFgmAD1xb9HeiEeGGboP-25" value="&lt;h3&gt;E-RESTful&lt;/h3&gt;" style="rounded=1;whiteSpace=wrap;html=1;fillColor=#ffe6cc;strokeColor=#d79b00;" vertex="1" parent="1">
          <mxGeometry x="240" y="330" width="120" height="60" as="geometry" />
        </mxCell>
        <mxCell id="xFgmAD1xb9HeiEeGGboP-44" value="Data" style="swimlane;fontStyle=0;childLayout=stackLayout;horizontal=1;startSize=30;horizontalStack=0;resizeParent=1;resizeParentMax=0;resizeLast=0;collapsible=1;marginBottom=0;whiteSpace=wrap;html=1;" vertex="1" parent="1">
          <mxGeometry x="65" y="460" width="90" height="150" as="geometry" />
        </mxCell>
        <mxCell id="xFgmAD1xb9HeiEeGGboP-45" value="item id" style="text;strokeColor=none;fillColor=none;align=left;verticalAlign=middle;spacingLeft=4;spacingRight=4;overflow=hidden;points=[[0,0.5],[1,0.5]];portConstraint=eastwest;rotatable=0;whiteSpace=wrap;html=1;" vertex="1" parent="xFgmAD1xb9HeiEeGGboP-44">
          <mxGeometry y="30" width="90" height="30" as="geometry" />
        </mxCell>
        <mxCell id="xFgmAD1xb9HeiEeGGboP-46" value="ebayProduct" style="text;strokeColor=none;fillColor=none;align=left;verticalAlign=middle;spacingLeft=4;spacingRight=4;overflow=hidden;points=[[0,0.5],[1,0.5]];portConstraint=eastwest;rotatable=0;whiteSpace=wrap;html=1;" vertex="1" parent="xFgmAD1xb9HeiEeGGboP-44">
          <mxGeometry y="60" width="90" height="30" as="geometry" />
        </mxCell>
        <mxCell id="xFgmAD1xb9HeiEeGGboP-47" value="AvgPrice" style="text;strokeColor=none;fillColor=none;align=left;verticalAlign=middle;spacingLeft=4;spacingRight=4;overflow=hidden;points=[[0,0.5],[1,0.5]];portConstraint=eastwest;rotatable=0;whiteSpace=wrap;html=1;" vertex="1" parent="xFgmAD1xb9HeiEeGGboP-44">
          <mxGeometry y="90" width="90" height="30" as="geometry" />
        </mxCell>
        <mxCell id="xFgmAD1xb9HeiEeGGboP-50" value="Link" style="rounded=0;whiteSpace=wrap;html=1;align=left;spacingLeft=4;labelBorderColor=none;" vertex="1" parent="xFgmAD1xb9HeiEeGGboP-44">
          <mxGeometry y="120" width="90" height="30" as="geometry" />
        </mxCell>
        <mxCell id="xFgmAD1xb9HeiEeGGboP-56" value="Data" style="swimlane;fontStyle=0;childLayout=stackLayout;horizontal=1;startSize=30;horizontalStack=0;resizeParent=1;resizeParentMax=0;resizeLast=0;collapsible=1;marginBottom=0;whiteSpace=wrap;html=1;" vertex="1" parent="1">
          <mxGeometry x="695" y="460" width="90" height="120" as="geometry" />
        </mxCell>
        <mxCell id="xFgmAD1xb9HeiEeGGboP-57" value="item id" style="text;strokeColor=none;fillColor=none;align=left;verticalAlign=middle;spacingLeft=4;spacingRight=4;overflow=hidden;points=[[0,0.5],[1,0.5]];portConstraint=eastwest;rotatable=0;whiteSpace=wrap;html=1;" vertex="1" parent="xFgmAD1xb9HeiEeGGboP-56">
          <mxGeometry y="30" width="90" height="30" as="geometry" />
        </mxCell>
        <mxCell id="xFgmAD1xb9HeiEeGGboP-58" value="ebayProduct" style="text;strokeColor=none;fillColor=none;align=left;verticalAlign=middle;spacingLeft=4;spacingRight=4;overflow=hidden;points=[[0,0.5],[1,0.5]];portConstraint=eastwest;rotatable=0;whiteSpace=wrap;html=1;" vertex="1" parent="xFgmAD1xb9HeiEeGGboP-56">
          <mxGeometry y="60" width="90" height="30" as="geometry" />
        </mxCell>
        <mxCell id="xFgmAD1xb9HeiEeGGboP-59" value="AvgPrice" style="text;strokeColor=none;fillColor=none;align=left;verticalAlign=middle;spacingLeft=4;spacingRight=4;overflow=hidden;points=[[0,0.5],[1,0.5]];portConstraint=eastwest;rotatable=0;whiteSpace=wrap;html=1;" vertex="1" parent="xFgmAD1xb9HeiEeGGboP-56">
          <mxGeometry y="90" width="90" height="30" as="geometry" />
        </mxCell>
        <mxCell id="xFgmAD1xb9HeiEeGGboP-63" value="&lt;h2&gt;Scrapper&lt;/h2&gt;" style="rounded=0;whiteSpace=wrap;html=1;fillColor=#d5e8d4;strokeColor=#82b366;" vertex="1" parent="1">
          <mxGeometry x="330" y="550" width="120" height="60" as="geometry" />
        </mxCell>
        <mxCell id="xFgmAD1xb9HeiEeGGboP-74" value="Self dependant app&lt;br&gt;&lt;br&gt;Other&amp;nbsp;dependant&lt;span style=&quot;&quot;&gt;&lt;span style=&quot;&quot;&gt;&lt;span style=&quot;white-space: pre;&quot;&gt;&amp;nbsp;&amp;nbsp;&amp;nbsp;&amp;nbsp;&lt;/span&gt;&lt;/span&gt;&lt;br&gt;&lt;br&gt;Functions&lt;br&gt;&lt;br&gt;Components&lt;br&gt;&lt;/span&gt;" style="whiteSpace=wrap;html=1;align=left;verticalAlign=top;" vertex="1" parent="1">
          <mxGeometry x="-10" y="-60" width="240" height="230" as="geometry" />
        </mxCell>
        <mxCell id="xFgmAD1xb9HeiEeGGboP-80" value="" style="rounded=0;whiteSpace=wrap;html=1;fillColor=#d5e8d4;strokeColor=#82b366;" vertex="1" parent="1">
          <mxGeometry x="120" y="-50" width="80" height="10" as="geometry" />
        </mxCell>
        <mxCell id="xFgmAD1xb9HeiEeGGboP-83" value="" style="rounded=0;whiteSpace=wrap;html=1;fillColor=#fff2cc;strokeColor=#d6b656;" vertex="1" parent="1">
          <mxGeometry x="120" y="-20" width="80" height="10" as="geometry" />
        </mxCell>
        <mxCell id="xFgmAD1xb9HeiEeGGboP-104" style="edgeStyle=orthogonalEdgeStyle;rounded=0;orthogonalLoop=1;jettySize=auto;html=1;exitX=1;exitY=0.5;exitDx=0;exitDy=0;entryX=0;entryY=0.5;entryDx=0;entryDy=0;" edge="1" parent="1" source="xFgmAD1xb9HeiEeGGboP-86" target="xFgmAD1xb9HeiEeGGboP-103">
          <mxGeometry relative="1" as="geometry" />
        </mxCell>
        <mxCell id="xFgmAD1xb9HeiEeGGboP-86" value="EScrapper" style="rounded=1;whiteSpace=wrap;html=1;fillColor=#dae8fc;strokeColor=#6c8ebf;" vertex="1" parent="1">
          <mxGeometry x="330" y="410" width="100" height="30" as="geometry" />
        </mxCell>
        <mxCell id="xFgmAD1xb9HeiEeGGboP-89" value="" style="endArrow=classic;html=1;rounded=0;" edge="1" parent="1">
          <mxGeometry width="50" height="50" relative="1" as="geometry">
            <mxPoint y="70" as="sourcePoint" />
            <mxPoint x="80" y="70" as="targetPoint" />
            <Array as="points" />
          </mxGeometry>
        </mxCell>
        <mxCell id="xFgmAD1xb9HeiEeGGboP-92" value="&lt;font style=&quot;font-size: 14px;&quot;&gt;&lt;b&gt;Has a&lt;/b&gt;&lt;/font&gt;" style="edgeLabel;html=1;align=center;verticalAlign=middle;resizable=0;points=[];" vertex="1" connectable="0" parent="xFgmAD1xb9HeiEeGGboP-89">
          <mxGeometry y="1" relative="1" as="geometry">
            <mxPoint x="110" as="offset" />
          </mxGeometry>
        </mxCell>
        <mxCell id="xFgmAD1xb9HeiEeGGboP-95" style="edgeStyle=orthogonalEdgeStyle;rounded=0;orthogonalLoop=1;jettySize=auto;html=1;exitX=0.5;exitY=1;exitDx=0;exitDy=0;entryX=0.683;entryY=-0.05;entryDx=0;entryDy=0;entryPerimeter=0;shape=flexArrow;" edge="1" parent="1" source="xFgmAD1xb9HeiEeGGboP-86" target="xFgmAD1xb9HeiEeGGboP-63">
          <mxGeometry relative="1" as="geometry" />
        </mxCell>
        <mxCell id="xFgmAD1xb9HeiEeGGboP-96" value="" style="endArrow=classic;html=1;rounded=0;shape=link;" edge="1" parent="1">
          <mxGeometry width="50" height="50" relative="1" as="geometry">
            <mxPoint x="10" y="100" as="sourcePoint" />
            <mxPoint x="75" y="100" as="targetPoint" />
          </mxGeometry>
        </mxCell>
        <mxCell id="xFgmAD1xb9HeiEeGGboP-97" value="&lt;b&gt;&lt;font style=&quot;font-size: 14px;&quot;&gt;Connection&lt;/font&gt;&lt;/b&gt;" style="edgeLabel;html=1;align=center;verticalAlign=middle;resizable=0;points=[];" vertex="1" connectable="0" parent="xFgmAD1xb9HeiEeGGboP-96">
          <mxGeometry x="0.0462" y="-4" relative="1" as="geometry">
            <mxPoint x="111" y="-4" as="offset" />
          </mxGeometry>
        </mxCell>
        <mxCell id="xFgmAD1xb9HeiEeGGboP-101" value="" style="shape=flexArrow;endArrow=classic;html=1;rounded=0;" edge="1" parent="1">
          <mxGeometry width="50" height="50" relative="1" as="geometry">
            <mxPoint x="10" y="130" as="sourcePoint" />
            <mxPoint x="75" y="130" as="targetPoint" />
          </mxGeometry>
        </mxCell>
        <mxCell id="xFgmAD1xb9HeiEeGGboP-102" value="IS a" style="edgeLabel;html=1;align=center;verticalAlign=middle;resizable=0;points=[];fontSize=14;fontStyle=1" vertex="1" connectable="0" parent="xFgmAD1xb9HeiEeGGboP-101">
          <mxGeometry x="0.0154" y="-1" relative="1" as="geometry">
            <mxPoint x="107" as="offset" />
          </mxGeometry>
        </mxCell>
        <mxCell id="xFgmAD1xb9HeiEeGGboP-103" value="GET&lt;br&gt;POST&lt;br&gt;DELETE" style="rounded=1;whiteSpace=wrap;html=1;fillColor=#dae8fc;strokeColor=#6c8ebf;" vertex="1" parent="1">
          <mxGeometry x="485" y="400" width="120" height="50" as="geometry" />
        </mxCell>
        <mxCell id="xFgmAD1xb9HeiEeGGboP-108" value="" style="rounded=0;whiteSpace=wrap;html=1;fillColor=#dae8fc;strokeColor=#6c8ebf;" vertex="1" parent="1">
          <mxGeometry x="120" y="10" width="80" height="10" as="geometry" />
        </mxCell>
        <mxCell id="xFgmAD1xb9HeiEeGGboP-110" value="" style="rounded=0;whiteSpace=wrap;html=1;fillColor=#ffe6cc;strokeColor=#d79b00;" vertex="1" parent="1">
          <mxGeometry x="120" y="40" width="80" height="10" as="geometry" />
        </mxCell>
      </root>
    </mxGraphModel>
  </diagram>
</mxfile>
